<?xml version="1.0" standalone="no"?><!-- Generator: Gravit.io --><svg xmlns="http://www.w3.org/2000/svg" xmlns:xlink="http://www.w3.org/1999/xlink" style="isolation:isolate" viewBox="0 0 450 450" width="450" height="450"><defs><clipPath id="_clipPath_NhIJu0eKjS1M6Yx39Bd6GlFnqiBVfTHT"><rect width="450" height="450"/></clipPath></defs><g clip-path="url(#_clipPath_NhIJu0eKjS1M6Yx39Bd6GlFnqiBVfTHT)"><path d=" M 16.296 64 L 16.296 386 L 433.704 386 L 433.704 64 L 16.296 64 Z  M 28.222 75.926 L 421.778 75.926 L 421.778 374.074 L 28.222 374.074 L 28.222 75.926 Z  M 52.074 99.778 L 52.074 350.222 L 397.926 350.222 L 397.926 99.778 L 52.074 99.778 Z  M 64 111.704 L 386 111.704 L 386 270.223 L 382.625 266.848 C 375.571 259.794 364.676 259.359 356.71 264.797 L 334.921 242.996 C 326.888 235.033 313.939 235.033 305.905 242.996 L 302.519 246.383 L 299.143 242.996 C 291.11 235.033 278.161 235.033 270.128 242.996 L 260.778 252.346 L 227.588 219.144 C 219.555 211.182 206.605 211.182 198.572 219.144 L 189.025 228.691 L 137.911 182.21 C 134.004 178.674 128.885 176.782 123.618 176.927 C 118.353 177.034 113.333 179.17 109.605 182.89 L 64 228.488 L 64 111.704 Z  M 314.444 129.593 C 311.151 129.593 308.481 132.262 308.481 135.556 C 308.481 138.849 311.151 141.519 314.444 141.519 C 317.738 141.519 320.407 138.849 320.407 135.556 C 320.407 132.262 317.738 129.593 314.444 129.593 Z  M 285.011 141.817 C 283.402 141.798 281.854 142.43 280.718 143.57 C 278.39 145.898 278.39 149.673 280.718 152.001 C 283.046 154.329 286.821 154.329 289.15 152.001 C 291.477 149.673 291.477 145.898 289.15 143.57 C 288.051 142.47 286.566 141.843 285.011 141.823 L 285.011 141.817 Z  M 344.045 141.835 C 342.435 141.806 340.882 142.43 339.739 143.564 C 338.616 144.683 337.984 146.203 337.984 147.789 C 337.984 149.374 338.616 150.894 339.739 152.013 C 342.068 154.341 345.842 154.341 348.171 152.013 C 349.292 150.895 349.923 149.376 349.923 147.792 C 349.923 146.207 349.292 144.688 348.171 143.57 C 347.075 142.479 345.597 141.857 344.051 141.835 L 344.045 141.835 Z  M 314.444 153.444 C 301.344 153.444 290.593 164.196 290.593 177.296 C 290.593 190.397 301.344 201.148 314.444 201.148 C 327.545 201.148 338.296 190.397 338.296 177.296 C 338.296 164.196 327.545 153.444 314.444 153.444 Z  M 314.444 165.37 C 321.099 165.37 326.37 170.642 326.37 177.296 C 326.37 183.951 321.099 189.222 314.444 189.222 C 307.79 189.222 302.519 183.951 302.519 177.296 C 302.519 170.642 307.79 165.37 314.444 165.37 Z  M 272.704 171.333 C 269.41 171.333 266.741 174.003 266.741 177.296 C 266.741 180.59 269.41 183.259 272.704 183.259 C 275.997 183.259 278.667 180.59 278.667 177.296 C 278.667 174.003 275.997 171.333 272.704 171.333 Z  M 356.185 171.333 C 352.892 171.333 350.222 174.003 350.222 177.296 C 350.222 180.59 352.892 183.259 356.185 183.259 C 359.478 183.259 362.148 180.59 362.148 177.296 C 362.148 174.003 359.478 171.333 356.185 171.333 Z  M 123.91 188.781 C 126.033 188.727 128.161 189.479 129.885 191.041 L 153.48 212.478 C 153.458 212.676 153.446 212.875 153.444 213.074 C 153.444 216.367 156.114 219.037 159.407 219.037 C 159.794 219.035 160.179 218.995 160.558 218.918 L 168.227 225.883 C 166.455 226.964 165.374 228.888 165.37 230.963 C 165.37 234.256 168.04 236.926 171.333 236.926 C 173.605 236.921 175.677 235.627 176.676 233.587 L 189.419 245.155 L 207.01 227.576 C 208.608 225.942 210.797 225.022 213.083 225.022 C 215.369 225.022 217.558 225.942 219.156 227.576 L 260.778 269.209 L 278.559 251.428 C 280.159 249.794 282.349 248.873 284.636 248.873 C 286.922 248.873 289.112 249.794 290.712 251.428 L 302.519 263.246 L 314.337 251.428 C 315.937 249.794 318.127 248.873 320.413 248.873 C 322.7 248.873 324.89 249.794 326.49 251.428 L 356.185 281.135 L 362.041 275.28 C 363.64 273.646 365.831 272.725 368.117 272.725 C 370.404 272.725 372.594 273.646 374.193 275.28 L 386 287.098 L 386 296.556 C 382.707 296.556 380.037 299.225 380.037 302.519 C 380.037 305.812 382.707 308.481 386 308.481 L 386 332.333 C 382.707 332.333 380.037 335.003 380.037 338.296 L 368.111 338.296 C 368.111 335.003 365.441 332.333 362.148 332.333 C 358.855 332.333 356.185 335.003 356.185 338.296 L 344.259 338.296 C 344.259 335.003 341.59 332.333 338.296 332.333 C 335.003 332.333 332.333 335.003 332.333 338.296 L 320.407 338.296 C 320.407 335.003 317.738 332.333 314.444 332.333 C 311.151 332.333 308.481 335.003 308.481 338.296 L 296.556 338.296 C 296.556 335.003 293.886 332.333 290.593 332.333 C 287.299 332.333 284.63 335.003 284.63 338.296 L 272.704 338.296 C 272.704 335.003 270.034 332.333 266.741 332.333 C 263.447 332.333 260.778 335.003 260.778 338.296 L 248.852 338.296 C 248.852 335.003 246.182 332.333 242.889 332.333 C 239.596 332.333 236.926 335.003 236.926 338.296 L 225 338.296 C 225 335.003 222.33 332.333 219.037 332.333 C 215.744 332.333 213.074 335.003 213.074 338.296 L 201.148 338.296 C 201.148 335.003 198.478 332.333 195.185 332.333 C 191.892 332.333 189.222 335.003 189.222 338.296 L 177.296 338.296 C 177.296 335.003 174.627 332.333 171.333 332.333 C 168.04 332.333 165.37 335.003 165.37 338.296 L 153.444 338.296 C 153.444 335.003 150.775 332.333 147.481 332.333 C 144.188 332.333 141.519 335.003 141.519 338.296 L 129.593 338.296 C 129.593 335.003 126.923 332.333 123.63 332.333 C 120.336 332.333 117.667 335.003 117.667 338.296 L 105.741 338.296 C 105.741 335.003 103.071 332.333 99.778 332.333 C 96.485 332.333 93.815 335.003 93.815 338.296 L 81.889 338.296 C 81.889 335.003 79.219 332.333 75.926 332.333 C 72.633 332.333 69.963 335.003 69.963 338.296 L 64 338.296 L 64 326.37 C 67.293 326.37 69.963 323.701 69.963 320.407 C 69.963 317.114 67.293 314.444 64 314.444 L 64 290.593 C 67.293 290.593 69.963 287.923 69.963 284.63 C 69.963 281.336 67.293 278.667 64 278.667 L 64 254.815 C 67.293 254.815 69.963 252.145 69.963 248.852 C 69.961 246.365 68.416 244.141 66.087 243.271 L 73.129 236.228 C 73.99 236.686 74.951 236.926 75.926 236.926 C 79.219 236.926 81.889 234.256 81.889 230.963 C 81.889 229.988 81.649 229.027 81.191 228.166 L 118.042 191.315 C 119.682 189.675 121.787 188.829 123.91 188.781 Z  M 285.011 200.844 C 283.403 200.824 281.855 201.454 280.718 202.591 C 278.39 204.92 278.39 208.694 280.718 211.023 C 283.046 213.351 286.821 213.351 289.15 211.023 C 291.477 208.694 291.477 204.92 289.15 202.591 C 288.051 201.492 286.566 200.865 285.011 200.844 Z  M 344.045 200.856 C 342.432 200.832 340.879 201.463 339.739 202.603 C 337.412 204.932 337.412 208.706 339.739 211.035 C 342.068 213.363 345.842 213.363 348.171 211.035 C 350.499 208.706 350.499 204.932 348.171 202.603 C 347.076 201.508 345.599 200.881 344.051 200.856 L 344.045 200.856 Z  M 135.556 207.111 C 132.262 207.111 129.593 209.781 129.593 213.074 C 129.593 216.367 132.262 219.037 135.556 219.037 C 138.849 219.037 141.519 216.367 141.519 213.074 C 141.519 209.781 138.849 207.111 135.556 207.111 Z  M 314.444 213.074 C 311.151 213.074 308.481 215.744 308.481 219.037 C 308.481 222.33 311.151 225 314.444 225 C 317.738 225 320.407 222.33 320.407 219.037 C 320.407 215.744 317.738 213.074 314.444 213.074 Z  M 123.63 225 C 120.336 225 117.667 227.67 117.667 230.963 C 117.667 234.256 120.336 236.926 123.63 236.926 C 126.923 236.926 129.593 234.256 129.593 230.963 C 129.593 227.67 126.923 225 123.63 225 Z  M 147.481 225 C 144.188 225 141.519 227.67 141.519 230.963 C 141.519 234.256 144.188 236.926 147.481 236.926 C 150.775 236.926 153.444 234.256 153.444 230.963 C 153.444 227.67 150.775 225 147.481 225 Z  M 87.852 242.889 C 84.559 242.889 81.889 245.559 81.889 248.852 C 81.889 252.145 84.559 254.815 87.852 254.815 C 91.145 254.815 93.815 252.145 93.815 248.852 C 93.815 245.559 91.145 242.889 87.852 242.889 Z  M 135.556 242.889 C 132.262 242.889 129.593 245.559 129.593 248.852 C 129.593 252.145 132.262 254.815 135.556 254.815 C 138.849 254.815 141.519 252.145 141.519 248.852 C 141.519 245.559 138.849 242.889 135.556 242.889 Z  M 159.407 242.889 C 156.114 242.889 153.444 245.559 153.444 248.852 C 153.444 252.145 156.114 254.815 159.407 254.815 C 162.701 254.815 165.37 252.145 165.37 248.852 C 165.37 245.559 162.701 242.889 159.407 242.889 Z  M 183.259 242.889 C 179.966 242.889 177.296 245.559 177.296 248.852 C 177.296 252.145 179.966 254.815 183.259 254.815 C 186.553 254.815 189.222 252.145 189.222 248.852 C 189.222 245.559 186.553 242.889 183.259 242.889 Z  M 230.963 242.889 C 227.67 242.889 225 245.559 225 248.852 C 225 252.145 227.67 254.815 230.963 254.815 C 234.256 254.815 236.926 252.145 236.926 248.852 C 236.926 245.559 234.256 242.889 230.963 242.889 Z  M 75.926 260.778 C 72.633 260.778 69.963 263.447 69.963 266.741 C 69.963 270.034 72.633 272.704 75.926 272.704 C 79.219 272.704 81.889 270.034 81.889 266.741 C 81.889 263.447 79.219 260.778 75.926 260.778 Z  M 99.778 260.778 C 96.485 260.778 93.815 263.447 93.815 266.741 C 93.815 270.034 96.485 272.704 99.778 272.704 C 103.071 272.704 105.741 270.034 105.741 266.741 C 105.741 263.447 103.071 260.778 99.778 260.778 Z  M 123.63 260.778 C 120.336 260.778 117.667 263.447 117.667 266.741 C 117.667 270.034 120.336 272.704 123.63 272.704 C 126.923 272.704 129.593 270.034 129.593 266.741 C 129.593 263.447 126.923 260.778 123.63 260.778 Z  M 147.481 260.778 C 144.188 260.778 141.519 263.447 141.519 266.741 C 141.519 270.034 144.188 272.704 147.481 272.704 C 150.775 272.704 153.444 270.034 153.444 266.741 C 153.444 263.447 150.775 260.778 147.481 260.778 Z  M 171.333 260.778 C 168.04 260.778 165.37 263.447 165.37 266.741 C 165.37 270.034 168.04 272.704 171.333 272.704 C 174.627 272.704 177.296 270.034 177.296 266.741 C 177.296 263.447 174.627 260.778 171.333 260.778 Z  M 219.037 260.778 C 215.744 260.778 213.074 263.447 213.074 266.741 C 213.074 270.034 215.744 272.704 219.037 272.704 C 222.33 272.704 225 270.034 225 266.741 C 225 263.447 222.33 260.778 219.037 260.778 Z  M 242.889 260.778 C 239.596 260.778 236.926 263.447 236.926 266.741 C 236.926 270.034 239.596 272.704 242.889 272.704 C 246.182 272.704 248.852 270.034 248.852 266.741 C 248.852 263.447 246.182 260.778 242.889 260.778 Z  M 290.593 260.778 C 287.299 260.778 284.63 263.447 284.63 266.741 C 284.63 270.034 287.299 272.704 290.593 272.704 C 293.886 272.704 296.556 270.034 296.556 266.741 C 296.556 263.447 293.886 260.778 290.593 260.778 Z  M 87.852 278.667 C 84.559 278.667 81.889 281.336 81.889 284.63 C 81.889 287.923 84.559 290.593 87.852 290.593 C 91.145 290.593 93.815 287.923 93.815 284.63 C 93.815 281.336 91.145 278.667 87.852 278.667 Z  M 111.704 278.667 C 108.41 278.667 105.741 281.336 105.741 284.63 C 105.741 287.923 108.41 290.593 111.704 290.593 C 114.997 290.593 117.667 287.923 117.667 284.63 C 117.667 281.336 114.997 278.667 111.704 278.667 Z  M 135.556 278.667 C 132.262 278.667 129.593 281.336 129.593 284.63 C 129.593 287.923 132.262 290.593 135.556 290.593 C 138.849 290.593 141.519 287.923 141.519 284.63 C 141.519 281.336 138.849 278.667 135.556 278.667 Z  M 159.407 278.667 C 156.114 278.667 153.444 281.336 153.444 284.63 C 153.444 287.923 156.114 290.593 159.407 290.593 C 162.701 290.593 165.37 287.923 165.37 284.63 C 165.37 281.336 162.701 278.667 159.407 278.667 Z  M 183.259 278.667 C 179.966 278.667 177.296 281.336 177.296 284.63 C 177.296 287.923 179.966 290.593 183.259 290.593 C 186.553 290.593 189.222 287.923 189.222 284.63 C 189.222 281.336 186.553 278.667 183.259 278.667 Z  M 207.111 278.667 C 203.818 278.667 201.148 281.336 201.148 284.63 C 201.148 287.923 203.818 290.593 207.111 290.593 C 210.404 290.593 213.074 287.923 213.074 284.63 C 213.074 281.336 210.404 278.667 207.111 278.667 Z  M 230.963 278.667 C 227.67 278.667 225 281.336 225 284.63 C 225 287.923 227.67 290.593 230.963 290.593 C 234.256 290.593 236.926 287.923 236.926 284.63 C 236.926 281.336 234.256 278.667 230.963 278.667 Z  M 254.815 278.667 C 251.522 278.667 248.852 281.336 248.852 284.63 C 248.852 287.923 251.522 290.593 254.815 290.593 C 258.108 290.593 260.778 287.923 260.778 284.63 C 260.778 281.336 258.108 278.667 254.815 278.667 Z  M 278.667 278.667 C 275.373 278.667 272.704 281.336 272.704 284.63 C 272.704 287.923 275.373 290.593 278.667 290.593 C 281.96 290.593 284.63 287.923 284.63 284.63 C 284.63 281.336 281.96 278.667 278.667 278.667 Z  M 326.37 278.667 C 323.077 278.667 320.407 281.336 320.407 284.63 C 320.407 287.923 323.077 290.593 326.37 290.593 C 329.664 290.593 332.333 287.923 332.333 284.63 C 332.333 281.336 329.664 278.667 326.37 278.667 Z  M 350.222 278.667 C 346.929 278.667 344.259 281.336 344.259 284.63 C 344.259 287.923 346.929 290.593 350.222 290.593 C 353.515 290.593 356.185 287.923 356.185 284.63 C 356.185 281.336 353.515 278.667 350.222 278.667 Z  M 75.926 296.556 C 72.633 296.556 69.963 299.225 69.963 302.519 C 69.963 305.812 72.633 308.481 75.926 308.481 C 79.219 308.481 81.889 305.812 81.889 302.519 C 81.889 299.225 79.219 296.556 75.926 296.556 Z  M 99.778 296.556 C 96.485 296.556 93.815 299.225 93.815 302.519 C 93.815 305.812 96.485 308.481 99.778 308.481 C 103.071 308.481 105.741 305.812 105.741 302.519 C 105.741 299.225 103.071 296.556 99.778 296.556 Z  M 123.63 296.556 C 120.336 296.556 117.667 299.225 117.667 302.519 C 117.667 305.812 120.336 308.481 123.63 308.481 C 126.923 308.481 129.593 305.812 129.593 302.519 C 129.593 299.225 126.923 296.556 123.63 296.556 Z  M 147.481 296.556 C 144.188 296.556 141.519 299.225 141.519 302.519 C 141.519 305.812 144.188 308.481 147.481 308.481 C 150.775 308.481 153.444 305.812 153.444 302.519 C 153.444 299.225 150.775 296.556 147.481 296.556 Z  M 171.333 296.556 C 168.04 296.556 165.37 299.225 165.37 302.519 C 165.37 305.812 168.04 308.481 171.333 308.481 C 174.627 308.481 177.296 305.812 177.296 302.519 C 177.296 299.225 174.627 296.556 171.333 296.556 Z  M 195.185 296.556 C 191.892 296.556 189.222 299.225 189.222 302.519 C 189.222 305.812 191.892 308.481 195.185 308.481 C 198.478 308.481 201.148 305.812 201.148 302.519 C 201.148 299.225 198.478 296.556 195.185 296.556 Z  M 219.037 296.556 C 215.744 296.556 213.074 299.225 213.074 302.519 C 213.074 305.812 215.744 308.481 219.037 308.481 C 222.33 308.481 225 305.812 225 302.519 C 225 299.225 222.33 296.556 219.037 296.556 Z  M 242.889 296.556 C 239.596 296.556 236.926 299.225 236.926 302.519 C 236.926 305.812 239.596 308.481 242.889 308.481 C 246.182 308.481 248.852 305.812 248.852 302.519 C 248.852 299.225 246.182 296.556 242.889 296.556 Z  M 266.741 296.556 C 263.447 296.556 260.778 299.225 260.778 302.519 C 260.778 305.812 263.447 308.481 266.741 308.481 C 270.034 308.481 272.704 305.812 272.704 302.519 C 272.704 299.225 270.034 296.556 266.741 296.556 Z  M 290.593 296.556 C 287.299 296.556 284.63 299.225 284.63 302.519 C 284.63 305.812 287.299 308.481 290.593 308.481 C 293.886 308.481 296.556 305.812 296.556 302.519 C 296.556 299.225 293.886 296.556 290.593 296.556 Z  M 338.296 296.556 C 335.003 296.556 332.333 299.225 332.333 302.519 C 332.333 305.812 335.003 308.481 338.296 308.481 C 341.59 308.481 344.259 305.812 344.259 302.519 C 344.259 299.225 341.59 296.556 338.296 296.556 Z  M 362.148 296.556 C 358.855 296.556 356.185 299.225 356.185 302.519 C 356.185 305.812 358.855 308.481 362.148 308.481 C 365.441 308.481 368.111 305.812 368.111 302.519 C 368.111 299.225 365.441 296.556 362.148 296.556 Z  M 87.852 314.444 C 84.559 314.444 81.889 317.114 81.889 320.407 C 81.889 323.701 84.559 326.37 87.852 326.37 C 91.145 326.37 93.815 323.701 93.815 320.407 C 93.815 317.114 91.145 314.444 87.852 314.444 Z  M 111.704 314.444 C 108.41 314.444 105.741 317.114 105.741 320.407 C 105.741 323.701 108.41 326.37 111.704 326.37 C 114.997 326.37 117.667 323.701 117.667 320.407 C 117.667 317.114 114.997 314.444 111.704 314.444 Z  M 135.556 314.444 C 132.262 314.444 129.593 317.114 129.593 320.407 C 129.593 323.701 132.262 326.37 135.556 326.37 C 138.849 326.37 141.519 323.701 141.519 320.407 C 141.519 317.114 138.849 314.444 135.556 314.444 Z  M 159.407 314.444 C 156.114 314.444 153.444 317.114 153.444 320.407 C 153.444 323.701 156.114 326.37 159.407 326.37 C 162.701 326.37 165.37 323.701 165.37 320.407 C 165.37 317.114 162.701 314.444 159.407 314.444 Z  M 183.259 314.444 C 179.966 314.444 177.296 317.114 177.296 320.407 C 177.296 323.701 179.966 326.37 183.259 326.37 C 186.553 326.37 189.222 323.701 189.222 320.407 C 189.222 317.114 186.553 314.444 183.259 314.444 Z  M 207.111 314.444 C 203.818 314.444 201.148 317.114 201.148 320.407 C 201.148 323.701 203.818 326.37 207.111 326.37 C 210.404 326.37 213.074 323.701 213.074 320.407 C 213.074 317.114 210.404 314.444 207.111 314.444 Z  M 230.963 314.444 C 227.67 314.444 225 317.114 225 320.407 C 225 323.701 227.67 326.37 230.963 326.37 C 234.256 326.37 236.926 323.701 236.926 320.407 C 236.926 317.114 234.256 314.444 230.963 314.444 Z  M 254.815 314.444 C 251.522 314.444 248.852 317.114 248.852 320.407 C 248.852 323.701 251.522 326.37 254.815 326.37 C 258.108 326.37 260.778 323.701 260.778 320.407 C 260.778 317.114 258.108 314.444 254.815 314.444 Z  M 278.667 314.444 C 275.373 314.444 272.704 317.114 272.704 320.407 C 272.704 323.701 275.373 326.37 278.667 326.37 C 281.96 326.37 284.63 323.701 284.63 320.407 C 284.63 317.114 281.96 314.444 278.667 314.444 Z  M 302.519 314.444 C 299.225 314.444 296.556 317.114 296.556 320.407 C 296.556 323.701 299.225 326.37 302.519 326.37 C 305.812 326.37 308.481 323.701 308.481 320.407 C 308.481 317.114 305.812 314.444 302.519 314.444 Z  M 326.37 314.444 C 323.077 314.444 320.407 317.114 320.407 320.407 C 320.407 323.701 323.077 326.37 326.37 326.37 C 329.664 326.37 332.333 323.701 332.333 320.407 C 332.333 317.114 329.664 314.444 326.37 314.444 Z  M 350.222 314.444 C 346.929 314.444 344.259 317.114 344.259 320.407 C 344.259 323.701 346.929 326.37 350.222 326.37 C 353.515 326.37 356.185 323.701 356.185 320.407 C 356.185 317.114 353.515 314.444 350.222 314.444 Z  M 374.074 314.444 C 370.781 314.444 368.111 317.114 368.111 320.407 C 368.111 323.701 370.781 326.37 374.074 326.37 C 377.367 326.37 380.037 323.701 380.037 320.407 C 380.037 317.114 377.367 314.444 374.074 314.444 Z " fill="rgb(0,0,0)"/></g></svg>